<?xml version="1.0" encoding="iso-8859-1"?>
<!-- Uploaded to: SVG Repo, www.svgrepo.com, Generator: SVG Repo Mixer Tools -->
<!DOCTYPE svg PUBLIC "-//W3C//DTD SVG 1.1//EN" "http://www.w3.org/Graphics/SVG/1.1/DTD/svg11.dtd">
<svg fill="#000000" version="1.1" id="Capa_1" xmlns="http://www.w3.org/2000/svg" xmlns:xlink="http://www.w3.org/1999/xlink" 
	 width="800px" height="800px" viewBox="0 0 232.523 232.523"
	 xml:space="preserve">
<g>
	<g>
		<path d="M191.981,186.136c2.459-26.64,5.491-124.514-73.554-181.851L112.52,0l-8.45,17.83L71.919,6.041l7.338,41.919
			c-14.624,9.853-35.107,25.227-45.82,40.37c-6.452,9.111-7.19,20.091-1.998,30.124c6.623,12.8,21.19,20.366,35.178,18.031
			c11.724-1.956,25.005-8.281,33.993-13.181C97.595,144.116,87.003,186,50.676,186v0.124H39.277v46.399h165.236v-46.399h-12.531
			V186.136z M87.476,24.633l11.396,4.182l-4.504,9.511c-0.979,0.588-2.376,1.434-4.061,2.482L87.476,24.633z M113.882,112.257
			l0.375-11.585l-9.714,6.307c-0.23,0.148-22.848,14.724-39.916,17.572c-9.031,1.502-18.255-3.546-22.437-11.652
			c-1.788-3.449-4.014-10.323,1.126-17.564c15.917-22.473,58.339-47.259,58.765-47.508l1.625-0.943l13.45-28.375
			c23.979,19.113,39.123,42.445,48.598,65.707l-29.571-5.375l-2.163,11.913l36.522,6.638c3.062,9.522,5.272,18.879,6.827,27.786
			l-32.391-5.887l-2.164,11.904l36.416,6.62c0.981,8.369,1.407,16.112,1.549,22.993l-34.921-6.349l-2.151,11.916l36.984,6.715
			c-0.178,5.426-0.526,9.835-0.834,12.933H84.249C105.675,167.83,113.194,133.358,113.882,112.257z M192.419,220.43H51.397v-22.188
			h141.022V220.43z"/>
		<circle cx="99.041" cy="78.641" r="9.671"/>
	</g>
</g>
</svg>